<?xml version="1.0" encoding="UTF-8" standalone="no"?>
<svg xmlns="http://www.w3.org/2000/svg" viewBox="0 0 491 491" version="1.1">
  <defs>
    <!-- Drop shadow for the cup in the foreground -->
    <filter id="cupShadow" x="-20%" y="-20%" width="140%" height="140%">
      <feDropShadow dx="0" dy="12" stdDeviation="12" flood-color="#000000" flood-opacity="0.6"/>
    </filter>
    <!-- PlantUML Gradients -->
    <linearGradient id="puml-g" x1="-750.5" x2="-729.5" y1="319.06" y2="319.06" gradientTransform="translate(1104.2 304.47)" gradientUnits="userSpaceOnUse">
      <stop offset="0" stop-color="gray"/>
      <stop offset="1" stop-color="gray" stop-opacity="0"/>
    </linearGradient>
    <linearGradient id="puml-i" x1="-621.5" x2="-600.5" y1="348.3" y2="348.3" gradientTransform="translate(1075.2 275.22)" gradientUnits="userSpaceOnUse">
      <stop offset="0" stop-color="gray"/>
      <stop offset="1" stop-color="gray" stop-opacity="0"/>
    </linearGradient>
    <linearGradient id="puml-h" x1="-521.5" x2="-500.5" y1="348.3" y2="348.3" gradientTransform="translate(1075.2 275.22)" gradientUnits="userSpaceOnUse">
      <stop offset="0" stop-color="gray"/>
      <stop offset="1" stop-color="gray" stop-opacity="0"/>
    </linearGradient>
    <linearGradient id="puml-b" x1="-560.5" x2="-474.5" y1="114.1" y2="114.1" gradientTransform="translate(1104.2 304.47)" gradientUnits="userSpaceOnUse">
      <stop offset="0" stop-color="gray"/>
      <stop offset="1" stop-color="gray" stop-opacity="0"/>
    </linearGradient>
    <linearGradient id="puml-c" x1="188.68" x2="304.68" y1="603.53" y2="603.53" gradientUnits="userSpaceOnUse">
      <stop offset="0" stop-color="#0074bd"/>
      <stop offset="1" stop-color="#0074bd" stop-opacity="0"/>
    </linearGradient>
    <linearGradient id="puml-a" x1="543.68" x2="594.68" y1="488.42" y2="488.42" gradientUnits="userSpaceOnUse">
      <stop offset="0" stop-color="#0074bd"/>
      <stop offset="1" stop-color="#0074bd" stop-opacity="0"/>
    </linearGradient>
  </defs>

  <!-- Background: Mermaid rounded pink rectangle (Original Mermaid color with 0.8 opacity) -->
  <path d="M490.16,84.61C490.16,37.912 452.248,0 405.55,0L84.61,0C37.912,0 0,37.912 0,84.61L0,405.55C0,452.248 37.912,490.16 84.61,490.16L405.55,490.16C452.248,490.16 490.16,452.248 490.16,405.55L490.16,84.61Z" fill="#ff3670" fill-opacity="0.8"/>

  <!-- Mermaid tail in white (shrunk to 0.75 and shifted top-left) -->
  <g transform="translate(40, 40) scale(0.75) translate(-82.68, -111.18)">
    <path d="M407.48,111.18C335.587,108.103 269.573,152.338 245.08,220C220.587,152.338 154.573,108.103 82.68,111.18C80.285,168.229 107.577,222.632 154.74,254.82C178.908,271.419 193.35,298.951 193.27,328.27L193.27,379.13L296.9,379.13L296.9,328.27C296.816,298.953 311.255,271.42 335.42,254.82C382.596,222.644 409.892,168.233 407.48,111.18Z" fill="#ffffff" fill-rule="nonzero"/>
  </g>

  <!-- Foreground: PlantUML Cup with Shadow & Thick White Border Outline -->
  <g filter="url(#cupShadow)" transform="translate(90, 120) scale(0.85) translate(-188.68, -266)">
    <!-- White backing outline (Increased to 20px for extra contrast) -->
    <g stroke="#ffffff" stroke-width="20" stroke-linejoin="round" stroke-linecap="round" fill="none">
      <path d="m479.18 493.53 115 70-90 50-115-70z"/>
      <path d="m379.18 493.53 115 70-90 50-115-70z"/>
      <path d="m279.18 493.53 115 70-90 50-115-70z"/>
      <path d="m594 563.3-49.822-29.778v-120l50 30-.178 119.78z"/>
      <path d="m594.18 443.63 35-20.1-50-30-35 20z"/>
      <path d="m189.18 543.53 115 70v50l-115-70z"/>
      <path d="M304.18 663.53v-50l90-50 10 50 90-50 10 50 90-50v-120l35-20v240z"/>
      <path d="M598.39 365.54c10.048 11.566-2.634 21.965-2.634 21.965s25.497-13.16 13.79-29.648c-10.938-15.369-19.324-23.003 26.076-49.333 0 0-71.267 17.795-37.232 57.016"/>
      <path d="M609.54 266s21.628 21.64-20.52 54.906c-33.798 26.696-7.705 41.912-.011 59.305-19.73-17.8-34.203-33.472-24.496-48.056 14.255-21.405 53.751-31.786 45.027-66.155"/>
      <rect width="20" height="20" x="354.18" y="613.53" ry="5"/>
      <rect width="20" height="20" x="554.18" y="613.53" ry="5"/>
      <rect width="20" height="20" x="454.18" y="613.53" ry="5"/>
    </g>
    <!-- Foreground Colored Cup (with 1.5px black strokes) -->
    <path fill="#16003a" stroke="#000000" stroke-width="1.5" d="m479.18 493.53 115 70-90 50-115-70z"/>
    <path fill="#ffba39" stroke="#000000" stroke-width="1.5" d="m379.18 493.53 115 70-90 50-115-70z"/>
    <path fill="#991039" stroke="#000000" stroke-width="1.5" d="m279.18 493.53 115 70-90 50-115-70z"/>
    <path fill="url(#puml-a)" stroke="#000000" stroke-width="1.5" d="m594 563.3-49.822-29.778v-120l50 30-.178 119.78z"/>
    <path fill="url(#puml-b)" stroke="#000000" stroke-width="1.5" d="m594.18 443.63 35-20.1-50-30-35 20z"/>
    <path fill="url(#puml-c)" stroke="#000000" stroke-width="1.5" d="m189.18 543.53 115 70v50l-115-70z"/>
    <path fill="#ffffff" stroke="#000000" stroke-width="1.5" d="M304.18 663.53v-50l90-50 10 50 90-50 10 50 90-50v-120l35-20v240z"/>
    <path fill="#ea2d2e" fill-rule="evenodd" d="M598.39 365.54c10.048 11.566-2.634 21.965-2.634 21.965s25.497-13.16 13.79-29.648c-10.938-15.369-19.324-23.003 26.076-49.333 0 0-71.267 17.795-37.232 57.016" clip-rule="evenodd"/>
    <path fill="#ea2d2e" fill-rule="evenodd" d="M609.54 266s21.628 21.64-20.52 54.906c-33.798 26.696-7.705 41.912-.011 59.305-19.73-17.8-34.203-33.472-24.496-48.056 14.255-21.405 53.751-31.786 45.027-66.155" clip-rule="evenodd"/>
    <rect width="20" height="20" x="354.18" y="613.53" fill="url(#puml-g)" stroke="#000000" stroke-width="1.5" ry="5"/>
    <rect width="20" height="20" x="554.18" y="613.53" fill="url(#puml-h)" stroke="#000000" stroke-width="1.5" ry="5"/>
    <rect width="20" height="20" x="454.18" y="613.53" fill="url(#puml-i)" stroke="#000000" stroke-width="1.5" ry="5"/>
  </g>
</svg>
